<svg xmlns="http://www.w3.org/2000/svg" version="1.1" xmlns:xlink="http://www.w3.org/1999/xlink" xmlns:svgjs="http://svgjs.com/svgjs" width="4096" height="50" preserveAspectRatio="none" viewBox="0 0 4096 50">
    <g mask="url(&quot;#SvgjsMask5125&quot;)" fill="none">
        <g mask="url(&quot;#SvgjsMask5127&quot;)">
            <path d="M2395 35L2385 25L2375 25L2365 25L2355 25L2345 25L2335 25L2325 25L2315 25L2305 25L2295 25L2285 25L2275 25L2265 25L2255 25L2245 25L2235 25L2225 25L2215 25L2205 25M1235 35L1225 25L1215 25L1205 25L1195 25L1185 25L1175 25L1165 25L1155 25L1145 25L1135 25L1125 25L1115 25L1105 25L1095 25L1085 25L1075 25L1065 25L1055 25L1045 25L1035 25L1025 25L1015 25L1005 25L995 25L985 25L975 25L965 25L955 25L945 25L935 25L925 25L915 25L905 25L895 25L885 25L875 25L865 25L855 25L845 25L835 35L825 35L815 35L805 35L795 35L785 35L775 35L765 35L755 35L745 35L735 35L725 35L715 25L705 25L695 25L685 25L675 25L665 25L655 25L645 25L635 25L625 25L615 25L605 25L595 25L585 25L575 25L565 25L555 25L545 25L535 25L525 25L515 25L505 25L495 25L485 25L475 25L465 25L455 25L445 35M3185 35L3175 25M3265 35L3255 25L3245 25L3235 25L3225 25L3215 25L3205 25L3195 25L3185 25M1915 25L1905 35L1895 35L1885 35L1875 35M2125 35L2115 25L2105 25L2095 25L2085 25L2075 25L2065 25L2055 25L2045 25L2035 25L2025 25L2015 25L2005 25L1995 25M1605 25L1595 35L1585 35L1575 35L1565 35L1555 35L1545 35L1535 35L1525 35L1515 35L1505 35L1495 35L1485 35L1475 35L1465 35L1455 35L1445 35M1325 35L1315 25L1305 25L1295 25L1285 25L1275 25M1845 25L1835 35L1825 35L1815 35L1805 35M3575 35L3565 25L3555 25L3545 25L3535 25L3525 25L3515 25L3505 25L3495 25L3485 25M3035 35L3025 25L3015 25L3005 25L2995 25L2985 25L2975 25L2965 25L2955 25L2945 25L2935 25L2925 25L2915 25L2905 25L2895 25M3885 35L3875 25L3865 25L3855 25L3845 25L3835 25L3825 25L3815 25L3805 25L3795 25L3785 25L3775 25L3765 25L3755 25L3745 25L3735 25L3725 25L3715 25L3705 25L3695 25L3685 25L3675 25L3665 25L3655 25L3645 25L3635 25L3625 25L3615 25M2535 25L2525 35L2515 35M2625 35L2615 25L2605 25M2635 35L2625 25M1365 35L1355 25L1345 25L1335 25L1325 25M1735 25L1725 35L1715 35L1705 35L1695 35L1685 35M2175 35L2165 25L2155 25L2145 25L2135 25L2125 25M1255 35L1245 25L1235 25M2695 35L2685 25L2675 25L2665 25L2655 25L2645 25L2635 25M3955 35L3945 25L3935 25L3925 25L3915 25L3905 25L3895 25L3885 25M3465 25L3455 35L3445 35L3435 35L3425 35L3415 35L3405 35L3395 35L3385 35L3375 35L3365 35L3355 35L3345 35M3155 25L3145 35M2585 25L2575 35M3295 35L3285 25L3275 25L3265 25M1265 35L1255 25M3135 35L3125 25L3115 25L3105 25L3095 25L3085 25L3075 25L3065 25L3055 25L3045 25L3035 25M1655 25L1645 35L1635 35L1625 35L1615 35L1605 35M1925 25L1915 35M2755 35L2745 25L2735 25L2725 25L2715 25L2705 25L2695 25M3615 35L3605 35L3595 35M1935 25L1925 35M1785 25L1775 35L1765 35L1755 35L1745 35L1735 35M2825 25L2815 35L2805 35L2795 35L2785 35L2775 35L2765 35M2435 35L2425 25L2415 25L2405 25M3325 35L3315 25L3305 25L3295 25M2765 25L2755 25M3985 25L3975 25L3965 25L3955 25M1955 25L1945 35L1935 35M2505 35L2495 25L2485 25L2475 25L2465 25L2455 25L2445 25L2435 25M1675 25L1665 35L1655 35M1415 35L1405 25L1395 25L1385 25L1375 25L1365 25M2565 35L2555 25L2545 25M2835 25L2825 35M3475 25L3465 35M1975 25L1965 35L1955 35M2875 25L2865 35L2855 35L2845 35L2835 35M3335 35L3325 25M1425 35L1415 25M3175 35L3165 35L3155 35M3485 35L3475 35M3595 25L3585 25L3575 25M2595 25L2585 35M1445 25L1435 25L1425 25M1855 25L1845 35M2605 35L2595 35M1795 25L1785 35M2195 35L2185 25L2175 25M2545 35L2535 35M3145 25L3135 25M2515 25L2505 25M1865 25L1855 35M2885 25L2875 35M2575 25L2565 25M1995 35L1985 35L1975 35M4105 25L4095 25L4085 25L4075 25L4065 25L4055 25L4045 25L4035 25L4025 25L4015 25L4005 25L3995 25L3985 25L3975 35L3965 35L3955 35L3945 35L3935 35L3925 35L3915 35L3905 35L3895 35L3885 35L3875 35L3865 35L3855 35L3845 35L3835 35L3825 35L3815 35L3805 35L3795 35L3785 35L3775 35L3765 35L3755 35L3745 35L3735 35L3725 35L3715 35L3705 35L3695 35L3685 35L3675 35L3665 35L3655 35L3645 35L3635 35L3625 35L3615 35L3605 25L3595 25L3585 35L3575 35L3565 35L3555 35L3545 35L3535 35L3525 35L3515 35L3505 35L3495 35L3485 35L3475 25L3465 25L3455 25L3445 25L3435 25L3425 25L3415 25L3405 25L3395 25L3385 25L3375 25L3365 25L3355 25L3345 25L3335 35L3325 35L3315 35L3305 35L3295 35L3285 35L3275 35L3265 35L3255 35L3245 35L3235 35L3225 35L3215 35L3205 35L3195 35L3185 35L3175 35L3165 25L3155 25L3145 25L3135 35L3125 35L3115 35L3105 35L3095 35L3085 35L3075 35L3065 35L3055 35L3045 35L3035 35L3025 35L3015 35L3005 35L2995 35L2985 35L2975 35L2965 35L2955 35L2945 35L2935 35L2925 35L2915 35L2905 35L2895 35L2885 25L2875 25L2865 25L2855 25L2845 25L2835 25L2825 25L2815 25L2805 25L2795 25L2785 25L2775 25L2765 25L2755 35L2745 35L2735 35L2725 35L2715 35L2705 35L2695 35L2685 35L2675 35L2665 35L2655 35L2645 35L2635 35L2625 35L2615 35L2605 35L2595 25L2585 25L2575 25L2565 35L2555 35L2545 35L2535 25L2525 25L2515 25L2505 35L2495 35L2485 35L2475 35L2465 35L2455 35L2445 35L2435 35L2425 35L2415 35L2405 35L2395 35L2385 35L2375 35L2365 35L2355 35L2345 35L2335 35L2325 35L2315 35L2305 35L2295 35L2285 35L2275 35L2265 35L2255 35L2245 35L2235 35L2225 35L2215 35L2205 35L2195 35L2185 35L2175 35L2165 35L2155 35L2145 35L2135 35L2125 35L2115 35L2105 35L2095 35L2085 35L2075 35L2065 35L2055 35L2045 35L2035 35L2025 35L2015 35L2005 35L1995 35L1985 25L1975 25L1965 25L1955 25L1945 25L1935 25L1925 25L1915 25L1905 25L1895 25L1885 25L1875 25L1865 25L1855 25L1845 25L1835 25L1825 25L1815 25L1805 25L1795 25L1785 25L1775 25L1765 25L1755 25L1745 25L1735 25L1725 25L1715 25L1705 25L1695 25L1685 25L1675 25L1665 25L1655 25L1645 25L1635 25L1625 25L1615 25L1605 25L1595 25L1585 25L1575 25L1565 25L1555 25L1545 25L1535 25L1525 25L1515 25L1505 25L1495 25L1485 25L1475 25L1465 25L1455 25L1445 25L1435 35L1425 35L1415 35L1405 35L1395 35L1385 35L1375 35L1365 35L1355 35L1345 35L1335 35L1325 35L1315 35L1305 35L1295 35L1285 35L1275 35L1265 35L1255 35L1245 35L1235 35L1225 35L1215 35L1205 35L1195 35L1185 35L1175 35L1165 35L1155 35L1145 35L1135 35L1125 35L1115 35" stroke="url(#SvgjsLinearGradient5126)" stroke-width="1.67"></path>
            <path d="M1112.5 35 a2.5 2.5 0 1 0 5 0 a2.5 2.5 0 1 0 -5 0zM2202.5 25 a2.5 2.5 0 1 0 5 0 a2.5 2.5 0 1 0 -5 0zM442.5 35 a2.5 2.5 0 1 0 5 0 a2.5 2.5 0 1 0 -5 0zM3172.5 25 a2.5 2.5 0 1 0 5 0 a2.5 2.5 0 1 0 -5 0zM3182.5 25 a2.5 2.5 0 1 0 5 0 a2.5 2.5 0 1 0 -5 0zM1872.5 35 a2.5 2.5 0 1 0 5 0 a2.5 2.5 0 1 0 -5 0zM1992.5 25 a2.5 2.5 0 1 0 5 0 a2.5 2.5 0 1 0 -5 0zM1442.5 35 a2.5 2.5 0 1 0 5 0 a2.5 2.5 0 1 0 -5 0zM1272.5 25 a2.5 2.5 0 1 0 5 0 a2.5 2.5 0 1 0 -5 0zM1802.5 35 a2.5 2.5 0 1 0 5 0 a2.5 2.5 0 1 0 -5 0zM3482.5 25 a2.5 2.5 0 1 0 5 0 a2.5 2.5 0 1 0 -5 0zM2892.5 25 a2.5 2.5 0 1 0 5 0 a2.5 2.5 0 1 0 -5 0zM3612.5 25 a2.5 2.5 0 1 0 5 0 a2.5 2.5 0 1 0 -5 0zM2512.5 35 a2.5 2.5 0 1 0 5 0 a2.5 2.5 0 1 0 -5 0zM2602.5 25 a2.5 2.5 0 1 0 5 0 a2.5 2.5 0 1 0 -5 0zM2622.5 25 a2.5 2.5 0 1 0 5 0 a2.5 2.5 0 1 0 -5 0zM1322.5 25 a2.5 2.5 0 1 0 5 0 a2.5 2.5 0 1 0 -5 0zM1682.5 35 a2.5 2.5 0 1 0 5 0 a2.5 2.5 0 1 0 -5 0zM2122.5 25 a2.5 2.5 0 1 0 5 0 a2.5 2.5 0 1 0 -5 0zM1232.5 25 a2.5 2.5 0 1 0 5 0 a2.5 2.5 0 1 0 -5 0zM2632.5 25 a2.5 2.5 0 1 0 5 0 a2.5 2.5 0 1 0 -5 0zM3882.5 25 a2.5 2.5 0 1 0 5 0 a2.5 2.5 0 1 0 -5 0zM3342.5 35 a2.5 2.5 0 1 0 5 0 a2.5 2.5 0 1 0 -5 0zM3142.5 35 a2.5 2.5 0 1 0 5 0 a2.5 2.5 0 1 0 -5 0zM2572.5 35 a2.5 2.5 0 1 0 5 0 a2.5 2.5 0 1 0 -5 0zM3262.5 25 a2.5 2.5 0 1 0 5 0 a2.5 2.5 0 1 0 -5 0zM1252.5 25 a2.5 2.5 0 1 0 5 0 a2.5 2.5 0 1 0 -5 0zM3032.5 25 a2.5 2.5 0 1 0 5 0 a2.5 2.5 0 1 0 -5 0zM1602.5 35 a2.5 2.5 0 1 0 5 0 a2.5 2.5 0 1 0 -5 0zM1912.5 35 a2.5 2.5 0 1 0 5 0 a2.5 2.5 0 1 0 -5 0zM2692.5 25 a2.5 2.5 0 1 0 5 0 a2.5 2.5 0 1 0 -5 0zM3592.5 35 a2.5 2.5 0 1 0 5 0 a2.5 2.5 0 1 0 -5 0zM1922.5 35 a2.5 2.5 0 1 0 5 0 a2.5 2.5 0 1 0 -5 0zM1732.5 35 a2.5 2.5 0 1 0 5 0 a2.5 2.5 0 1 0 -5 0zM2762.5 35 a2.5 2.5 0 1 0 5 0 a2.5 2.5 0 1 0 -5 0zM2402.5 25 a2.5 2.5 0 1 0 5 0 a2.5 2.5 0 1 0 -5 0zM3292.5 25 a2.5 2.5 0 1 0 5 0 a2.5 2.5 0 1 0 -5 0zM2752.5 25 a2.5 2.5 0 1 0 5 0 a2.5 2.5 0 1 0 -5 0zM3952.5 25 a2.5 2.5 0 1 0 5 0 a2.5 2.5 0 1 0 -5 0zM1932.5 35 a2.5 2.5 0 1 0 5 0 a2.5 2.5 0 1 0 -5 0zM2432.5 25 a2.5 2.5 0 1 0 5 0 a2.5 2.5 0 1 0 -5 0zM1652.5 35 a2.5 2.5 0 1 0 5 0 a2.5 2.5 0 1 0 -5 0zM1362.5 25 a2.5 2.5 0 1 0 5 0 a2.5 2.5 0 1 0 -5 0zM2542.5 25 a2.5 2.5 0 1 0 5 0 a2.5 2.5 0 1 0 -5 0zM2822.5 35 a2.5 2.5 0 1 0 5 0 a2.5 2.5 0 1 0 -5 0zM3462.5 35 a2.5 2.5 0 1 0 5 0 a2.5 2.5 0 1 0 -5 0zM1952.5 35 a2.5 2.5 0 1 0 5 0 a2.5 2.5 0 1 0 -5 0zM2832.5 35 a2.5 2.5 0 1 0 5 0 a2.5 2.5 0 1 0 -5 0zM3322.5 25 a2.5 2.5 0 1 0 5 0 a2.5 2.5 0 1 0 -5 0zM1412.5 25 a2.5 2.5 0 1 0 5 0 a2.5 2.5 0 1 0 -5 0zM3152.5 35 a2.5 2.5 0 1 0 5 0 a2.5 2.5 0 1 0 -5 0zM3472.5 35 a2.5 2.5 0 1 0 5 0 a2.5 2.5 0 1 0 -5 0zM3572.5 25 a2.5 2.5 0 1 0 5 0 a2.5 2.5 0 1 0 -5 0zM2582.5 35 a2.5 2.5 0 1 0 5 0 a2.5 2.5 0 1 0 -5 0zM1422.5 25 a2.5 2.5 0 1 0 5 0 a2.5 2.5 0 1 0 -5 0zM1842.5 35 a2.5 2.5 0 1 0 5 0 a2.5 2.5 0 1 0 -5 0zM2592.5 35 a2.5 2.5 0 1 0 5 0 a2.5 2.5 0 1 0 -5 0zM1782.5 35 a2.5 2.5 0 1 0 5 0 a2.5 2.5 0 1 0 -5 0zM2172.5 25 a2.5 2.5 0 1 0 5 0 a2.5 2.5 0 1 0 -5 0zM2532.5 35 a2.5 2.5 0 1 0 5 0 a2.5 2.5 0 1 0 -5 0zM3132.5 25 a2.5 2.5 0 1 0 5 0 a2.5 2.5 0 1 0 -5 0zM2502.5 25 a2.5 2.5 0 1 0 5 0 a2.5 2.5 0 1 0 -5 0zM1852.5 35 a2.5 2.5 0 1 0 5 0 a2.5 2.5 0 1 0 -5 0zM2872.5 35 a2.5 2.5 0 1 0 5 0 a2.5 2.5 0 1 0 -5 0zM2562.5 25 a2.5 2.5 0 1 0 5 0 a2.5 2.5 0 1 0 -5 0zM1972.5 35 a2.5 2.5 0 1 0 5 0 a2.5 2.5 0 1 0 -5 0z" fill="url(#SvgjsLinearGradient5126)"></path>
            <path d="M4105 35L4095 35L4085 35L4075 35L4065 35L4055 35L4045 35L4035 35L4025 35L4015 35L4005 35L3995 35L3985 35" stroke="url(#SvgjsLinearGradient5126)" stroke-width="1.67"></path>
            <path d="M3982.5 35 a2.5 2.5 0 1 0 5 0 a2.5 2.5 0 1 0 -5 0z" fill="url(#SvgjsLinearGradient5126)"></path>
        </g>
    </g>
    <defs>
        <mask id="SvgjsMask5125">
            <rect width="4096" height="50" fill="#ffffff"></rect>
        </mask>
        <linearGradient x1="1011.3024" y1="-1011.5" x2="3084.6976" y2="1061.5" gradientUnits="userSpaceOnUse" id="SvgjsLinearGradient5126">
            <stop stop-color="rgba(17, 221, 117, 1)" offset="0"></stop>
            <stop stop-color="rgba(17, 221, 117, 1)" offset="0.88"></stop>
        </linearGradient>
        <mask id="SvgjsMask5127">
            <rect width="4096" height="50" fill="white"></rect>
            <path d="M1113.75 35 a1.25 1.25 0 1 0 2.5 0 a1.25 1.25 0 1 0 -2.5 0zM2203.75 25 a1.25 1.25 0 1 0 2.5 0 a1.25 1.25 0 1 0 -2.5 0zM443.75 35 a1.25 1.25 0 1 0 2.5 0 a1.25 1.25 0 1 0 -2.5 0zM3173.75 25 a1.25 1.25 0 1 0 2.5 0 a1.25 1.25 0 1 0 -2.5 0zM3183.75 25 a1.25 1.25 0 1 0 2.5 0 a1.25 1.25 0 1 0 -2.5 0zM1873.75 35 a1.25 1.25 0 1 0 2.5 0 a1.25 1.25 0 1 0 -2.5 0zM1993.75 25 a1.25 1.25 0 1 0 2.5 0 a1.25 1.25 0 1 0 -2.5 0zM1443.75 35 a1.25 1.25 0 1 0 2.5 0 a1.25 1.25 0 1 0 -2.5 0zM1273.75 25 a1.25 1.25 0 1 0 2.5 0 a1.25 1.25 0 1 0 -2.5 0zM1803.75 35 a1.25 1.25 0 1 0 2.5 0 a1.25 1.25 0 1 0 -2.5 0zM3483.75 25 a1.25 1.25 0 1 0 2.5 0 a1.25 1.25 0 1 0 -2.5 0zM2893.75 25 a1.25 1.25 0 1 0 2.5 0 a1.25 1.25 0 1 0 -2.5 0zM3613.75 25 a1.25 1.25 0 1 0 2.5 0 a1.25 1.25 0 1 0 -2.5 0zM2513.75 35 a1.25 1.25 0 1 0 2.5 0 a1.25 1.25 0 1 0 -2.5 0zM2603.75 25 a1.25 1.25 0 1 0 2.5 0 a1.25 1.25 0 1 0 -2.5 0zM2623.75 25 a1.25 1.25 0 1 0 2.5 0 a1.25 1.25 0 1 0 -2.5 0zM1323.75 25 a1.25 1.25 0 1 0 2.5 0 a1.25 1.25 0 1 0 -2.5 0zM1683.75 35 a1.25 1.25 0 1 0 2.5 0 a1.25 1.25 0 1 0 -2.5 0zM2123.75 25 a1.25 1.25 0 1 0 2.5 0 a1.25 1.25 0 1 0 -2.5 0zM1233.75 25 a1.25 1.25 0 1 0 2.5 0 a1.25 1.25 0 1 0 -2.5 0zM2633.75 25 a1.25 1.25 0 1 0 2.5 0 a1.25 1.25 0 1 0 -2.5 0zM3883.75 25 a1.25 1.25 0 1 0 2.5 0 a1.25 1.25 0 1 0 -2.5 0zM3343.75 35 a1.25 1.25 0 1 0 2.5 0 a1.25 1.25 0 1 0 -2.5 0zM3143.75 35 a1.25 1.25 0 1 0 2.5 0 a1.25 1.25 0 1 0 -2.5 0zM2573.75 35 a1.25 1.25 0 1 0 2.5 0 a1.25 1.25 0 1 0 -2.5 0zM3263.75 25 a1.25 1.25 0 1 0 2.5 0 a1.25 1.25 0 1 0 -2.5 0zM1253.75 25 a1.25 1.25 0 1 0 2.5 0 a1.25 1.25 0 1 0 -2.5 0zM3033.75 25 a1.25 1.25 0 1 0 2.5 0 a1.25 1.25 0 1 0 -2.5 0zM1603.75 35 a1.25 1.25 0 1 0 2.5 0 a1.25 1.25 0 1 0 -2.5 0zM1913.75 35 a1.25 1.25 0 1 0 2.5 0 a1.25 1.25 0 1 0 -2.5 0zM2693.75 25 a1.25 1.25 0 1 0 2.5 0 a1.25 1.25 0 1 0 -2.5 0zM3593.75 35 a1.25 1.25 0 1 0 2.5 0 a1.25 1.25 0 1 0 -2.5 0zM1923.75 35 a1.25 1.25 0 1 0 2.5 0 a1.25 1.25 0 1 0 -2.5 0zM1733.75 35 a1.25 1.25 0 1 0 2.5 0 a1.25 1.25 0 1 0 -2.5 0zM2763.75 35 a1.25 1.25 0 1 0 2.5 0 a1.25 1.25 0 1 0 -2.5 0zM2403.75 25 a1.25 1.25 0 1 0 2.5 0 a1.25 1.25 0 1 0 -2.5 0zM3293.75 25 a1.25 1.25 0 1 0 2.5 0 a1.25 1.25 0 1 0 -2.5 0zM2753.75 25 a1.25 1.25 0 1 0 2.5 0 a1.25 1.25 0 1 0 -2.5 0zM3953.75 25 a1.25 1.25 0 1 0 2.5 0 a1.25 1.25 0 1 0 -2.5 0zM1933.75 35 a1.25 1.25 0 1 0 2.5 0 a1.25 1.25 0 1 0 -2.5 0zM2433.75 25 a1.25 1.25 0 1 0 2.5 0 a1.25 1.25 0 1 0 -2.5 0zM1653.75 35 a1.25 1.25 0 1 0 2.5 0 a1.25 1.25 0 1 0 -2.5 0zM1363.75 25 a1.25 1.25 0 1 0 2.5 0 a1.25 1.25 0 1 0 -2.5 0zM2543.75 25 a1.25 1.25 0 1 0 2.5 0 a1.25 1.25 0 1 0 -2.5 0zM2823.75 35 a1.25 1.25 0 1 0 2.5 0 a1.25 1.25 0 1 0 -2.5 0zM3463.75 35 a1.25 1.25 0 1 0 2.5 0 a1.25 1.25 0 1 0 -2.5 0zM1953.75 35 a1.25 1.25 0 1 0 2.5 0 a1.25 1.25 0 1 0 -2.5 0zM2833.75 35 a1.25 1.25 0 1 0 2.5 0 a1.25 1.25 0 1 0 -2.5 0zM3323.75 25 a1.25 1.25 0 1 0 2.5 0 a1.25 1.25 0 1 0 -2.5 0zM1413.75 25 a1.25 1.25 0 1 0 2.5 0 a1.25 1.25 0 1 0 -2.5 0zM3153.75 35 a1.25 1.25 0 1 0 2.5 0 a1.25 1.25 0 1 0 -2.5 0zM3473.75 35 a1.25 1.25 0 1 0 2.5 0 a1.25 1.25 0 1 0 -2.5 0zM3573.75 25 a1.25 1.25 0 1 0 2.5 0 a1.25 1.25 0 1 0 -2.5 0zM2583.75 35 a1.25 1.25 0 1 0 2.5 0 a1.25 1.25 0 1 0 -2.5 0zM1423.75 25 a1.25 1.25 0 1 0 2.5 0 a1.25 1.25 0 1 0 -2.5 0zM1843.75 35 a1.25 1.25 0 1 0 2.5 0 a1.25 1.25 0 1 0 -2.5 0zM2593.75 35 a1.25 1.25 0 1 0 2.5 0 a1.25 1.25 0 1 0 -2.5 0zM1783.75 35 a1.25 1.25 0 1 0 2.5 0 a1.25 1.25 0 1 0 -2.5 0zM2173.75 25 a1.25 1.25 0 1 0 2.5 0 a1.25 1.25 0 1 0 -2.5 0zM2533.75 35 a1.25 1.25 0 1 0 2.5 0 a1.25 1.25 0 1 0 -2.5 0zM3133.75 25 a1.25 1.25 0 1 0 2.5 0 a1.25 1.25 0 1 0 -2.5 0zM2503.75 25 a1.25 1.25 0 1 0 2.5 0 a1.25 1.25 0 1 0 -2.5 0zM1853.75 35 a1.25 1.25 0 1 0 2.5 0 a1.25 1.25 0 1 0 -2.5 0zM2873.75 35 a1.25 1.25 0 1 0 2.5 0 a1.25 1.25 0 1 0 -2.5 0zM2563.75 25 a1.25 1.25 0 1 0 2.5 0 a1.25 1.25 0 1 0 -2.5 0zM1973.75 35 a1.25 1.25 0 1 0 2.5 0 a1.25 1.25 0 1 0 -2.5 0z" fill="black"></path>
            <path d="M3983.75 35 a1.25 1.25 0 1 0 2.5 0 a1.25 1.25 0 1 0 -2.5 0z" fill="black"></path>
        </mask>
    </defs>
</svg>