<svg xmlns="http://www.w3.org/2000/svg" version="1.1" xmlns:xlink="http://www.w3.org/1999/xlink" xmlns:svgjs="http://svgjs.com/svgjs" width="4096" height="50" preserveAspectRatio="none" viewBox="0 0 4096 50">
    <g mask="url(&quot;#SvgjsMask5109&quot;)" fill="none">
        <g mask="url(&quot;#SvgjsMask5111&quot;)">
            <path d="M2185 25L2195 35L2205 35L2215 35L2225 35L2235 35L2245 35L2255 35L2265 35L2275 35L2285 35L2295 35L2305 35L2315 35L2325 35L2335 35L2345 35L2355 35L2365 35L2375 35L2385 35L2395 35L2405 35M2515 35L2525 25L2535 25L2545 25L2555 25L2565 25L2575 25L2585 25L2595 25L2605 25L2615 25L2625 25L2635 25L2645 25L2655 25M2065 25L2075 35L2085 35L2095 35L2105 35L2115 35L2125 35L2135 35L2145 35L2155 35L2165 35L2175 35L2185 35M835 35L845 25L855 25L865 25L875 25L885 25L895 25L905 25L915 25L925 25L935 25L945 25L955 25M825 35L835 25M75 25L85 25L95 25L105 25L115 25L125 25L135 25L145 25L155 25L165 25L175 25L185 25L195 25L205 25L215 25L225 25L235 25L245 25L255 25L265 25L275 25L285 25L295 25L305 25L315 25L325 25L335 25M2795 35L2805 25L2815 25L2825 25L2835 25L2845 25L2855 25L2865 25L2875 25L2885 25L2895 25L2905 25L2915 25L2925 25L2935 25L2945 25L2955 25L2965 25L2975 25L2985 25L2995 25L3005 25L3015 25L3025 25L3035 25L3045 25L3055 25L3065 25L3075 25L3085 25L3095 25L3105 25L3115 25L3125 25L3135 25L3145 25L3155 35L3165 35L3175 35L3185 35L3195 35L3205 35L3215 25L3225 25L3235 25L3245 25L3255 25L3265 25L3275 25L3285 25L3295 25L3305 25L3315 25L3325 25L3335 25L3345 25L3355 25L3365 25L3375 25L3385 25L3395 25L3405 25L3415 25L3425 25L3435 25L3445 25L3455 25L3465 35L3475 35L3485 35L3495 35L3505 35L3515 35L3525 35L3535 35L3545 35L3555 35L3565 35L3575 35L3585 35M625 25L635 35L645 35L655 35L665 35L675 35L685 35L695 35L705 35L715 35M1085 25L1095 35L1105 35L1115 35L1125 35L1135 35L1145 35L1155 35L1165 35L1175 35L1185 35L1195 35L1205 35M2705 25L2715 35L2725 35L2735 35M1815 25L1825 35L1835 35L1845 35L1855 35M1375 25L1385 35L1395 35L1405 35L1415 35L1425 35L1435 35M1705 25L1715 35L1725 35L1735 35L1745 35L1755 35L1765 35L1775 35L1785 35L1795 35L1805 35L1815 35M1465 35L1475 25L1485 25M1575 25L1585 35L1595 35L1605 35L1615 35L1625 35L1635 35L1645 35L1655 35L1665 35L1675 35L1685 35L1695 35L1705 35M455 25L465 35L475 35L485 35L495 35L505 35L515 35L525 35L535 35L545 35L555 35L565 35L575 35L585 35L595 35L605 35L615 35L625 35M435 25L445 35L455 35M2745 35L2755 25L2765 25L2775 25L2785 25L2795 25M385 35L395 25M2045 25L2055 35L2065 35M2495 35L2505 25L2515 25M1065 25L1075 35L1085 35M1295 35L1305 25L1315 25L1325 25M775 35L785 25L795 25L805 25L815 25L825 25M1485 35L1495 35L1505 35L1515 35L1525 35L1535 35L1545 35L1555 35L1565 35L1575 35M975 35L985 25L995 25L1005 25L1015 25L1025 25M1895 25L1905 35L1915 35L1925 35L1935 35L1945 35M725 35L735 25L745 25L755 25L765 25L775 25M2425 35L2435 25L2445 25L2455 25L2465 25L2475 25L2485 25L2495 25M1235 35L1245 25L1255 25L1265 25L1275 25L1285 25L1295 25M335 35L345 35L355 35M1445 35L1455 25L1465 25M1045 35L1055 35L1065 35M1885 25L1895 35M1985 25L1995 35L2005 35L2015 35M1345 25L1355 35L1365 35L1375 35M405 25L415 35L425 35L435 35M375 35L385 25M1225 35L1235 25M1035 35L1045 25M2735 25L2745 25M1325 35L1335 35L1345 35M1215 35L1225 25M365 35L375 25M1955 25L1965 35L1975 35L1985 35M1435 25L1445 25M2665 25L2675 35L2685 35L2695 35L2705 35M1875 25L1885 35M965 35L975 25M2025 25L2035 35L2045 35M1205 25L1215 25M2415 35L2425 25M395 35L405 35M1865 25L1875 35M355 25L365 25M715 25L725 25M2655 35L2665 35M2405 25L2415 25M-5 25L5 25L15 25L25 25L35 25L45 25L55 25L65 25L75 25L85 35L95 35L105 35L115 35L125 35L135 35L145 35L155 35L165 35L175 35L185 35L195 35L205 35L215 35L225 35L235 35L245 35L255 35L265 35L275 35L285 35L295 35L305 35L315 35L325 35L335 35L345 25L355 25L365 35L375 35L385 35L395 35L405 25L415 25L425 25L435 25L445 25L455 25L465 25L475 25L485 25L495 25L505 25L515 25L525 25L535 25L545 25L555 25L565 25L575 25L585 25L595 25L605 25L615 25L625 25L635 25L645 25L655 25L665 25L675 25L685 25L695 25L705 25L715 25L725 35L735 35L745 35L755 35L765 35L775 35L785 35L795 35L805 35L815 35L825 35L835 35L845 35L855 35L865 35L875 35L885 35L895 35L905 35L915 35L925 35L935 35L945 35L955 35L965 35L975 35L985 35L995 35L1005 35L1015 35L1025 35L1035 35L1045 35L1055 25L1065 25L1075 25L1085 25L1095 25L1105 25L1115 25L1125 25L1135 25L1145 25L1155 25L1165 25L1175 25L1185 25L1195 25L1205 25L1215 35L1225 35L1235 35L1245 35L1255 35L1265 35L1275 35L1285 35L1295 35L1305 35L1315 35L1325 35L1335 25L1345 25L1355 25L1365 25L1375 25L1385 25L1395 25L1405 25L1415 25L1425 25L1435 25L1445 35L1455 35L1465 35L1475 35L1485 35L1495 25L1505 25L1515 25L1525 25L1535 25L1545 25L1555 25L1565 25L1575 25L1585 25L1595 25L1605 25L1615 25L1625 25L1635 25L1645 25L1655 25L1665 25L1675 25L1685 25L1695 25L1705 25L1715 25L1725 25L1735 25L1745 25L1755 25L1765 25L1775 25L1785 25L1795 25L1805 25L1815 25L1825 25L1835 25L1845 25L1855 25L1865 25L1875 25L1885 25L1895 25L1905 25L1915 25L1925 25L1935 25L1945 25L1955 25L1965 25L1975 25L1985 25L1995 25L2005 25L2015 25L2025 25L2035 25L2045 25L2055 25L2065 25L2075 25L2085 25L2095 25L2105 25L2115 25L2125 25L2135 25L2145 25L2155 25L2165 25L2175 25L2185 25L2195 25L2205 25L2215 25L2225 25L2235 25L2245 25L2255 25L2265 25L2275 25L2285 25L2295 25L2305 25L2315 25L2325 25L2335 25L2345 25L2355 25L2365 25L2375 25L2385 25L2395 25L2405 25L2415 35L2425 35L2435 35L2445 35L2455 35L2465 35L2475 35L2485 35L2495 35L2505 35L2515 35L2525 35L2535 35L2545 35L2555 35L2565 35L2575 35L2585 35L2595 35L2605 35L2615 35L2625 35L2635 35L2645 35L2655 35L2665 25L2675 25L2685 25L2695 25L2705 25L2715 25L2725 25L2735 25L2745 35L2755 35L2765 35L2775 35L2785 35L2795 35L2805 35L2815 35L2825 35L2835 35L2845 35L2855 35L2865 35" stroke="url(#SvgjsLinearGradient5110)" stroke-width="1.67"></path>
            <path d="M2862.5 35 a2.5 2.5 0 1 0 5 0 a2.5 2.5 0 1 0 -5 0zM2402.5 35 a2.5 2.5 0 1 0 5 0 a2.5 2.5 0 1 0 -5 0zM2652.5 25 a2.5 2.5 0 1 0 5 0 a2.5 2.5 0 1 0 -5 0zM2182.5 35 a2.5 2.5 0 1 0 5 0 a2.5 2.5 0 1 0 -5 0zM952.5 25 a2.5 2.5 0 1 0 5 0 a2.5 2.5 0 1 0 -5 0zM832.5 25 a2.5 2.5 0 1 0 5 0 a2.5 2.5 0 1 0 -5 0zM332.5 25 a2.5 2.5 0 1 0 5 0 a2.5 2.5 0 1 0 -5 0zM3582.5 35 a2.5 2.5 0 1 0 5 0 a2.5 2.5 0 1 0 -5 0zM712.5 35 a2.5 2.5 0 1 0 5 0 a2.5 2.5 0 1 0 -5 0zM1202.5 35 a2.5 2.5 0 1 0 5 0 a2.5 2.5 0 1 0 -5 0zM2732.5 35 a2.5 2.5 0 1 0 5 0 a2.5 2.5 0 1 0 -5 0zM1852.5 35 a2.5 2.5 0 1 0 5 0 a2.5 2.5 0 1 0 -5 0zM1432.5 35 a2.5 2.5 0 1 0 5 0 a2.5 2.5 0 1 0 -5 0zM1812.5 35 a2.5 2.5 0 1 0 5 0 a2.5 2.5 0 1 0 -5 0zM1482.5 25 a2.5 2.5 0 1 0 5 0 a2.5 2.5 0 1 0 -5 0zM1702.5 35 a2.5 2.5 0 1 0 5 0 a2.5 2.5 0 1 0 -5 0zM622.5 35 a2.5 2.5 0 1 0 5 0 a2.5 2.5 0 1 0 -5 0zM452.5 35 a2.5 2.5 0 1 0 5 0 a2.5 2.5 0 1 0 -5 0zM2792.5 25 a2.5 2.5 0 1 0 5 0 a2.5 2.5 0 1 0 -5 0zM392.5 25 a2.5 2.5 0 1 0 5 0 a2.5 2.5 0 1 0 -5 0zM2062.5 35 a2.5 2.5 0 1 0 5 0 a2.5 2.5 0 1 0 -5 0zM2512.5 25 a2.5 2.5 0 1 0 5 0 a2.5 2.5 0 1 0 -5 0zM1082.5 35 a2.5 2.5 0 1 0 5 0 a2.5 2.5 0 1 0 -5 0zM1322.5 25 a2.5 2.5 0 1 0 5 0 a2.5 2.5 0 1 0 -5 0zM822.5 25 a2.5 2.5 0 1 0 5 0 a2.5 2.5 0 1 0 -5 0zM1572.5 35 a2.5 2.5 0 1 0 5 0 a2.5 2.5 0 1 0 -5 0zM1022.5 25 a2.5 2.5 0 1 0 5 0 a2.5 2.5 0 1 0 -5 0zM1942.5 35 a2.5 2.5 0 1 0 5 0 a2.5 2.5 0 1 0 -5 0zM772.5 25 a2.5 2.5 0 1 0 5 0 a2.5 2.5 0 1 0 -5 0zM2492.5 25 a2.5 2.5 0 1 0 5 0 a2.5 2.5 0 1 0 -5 0zM1292.5 25 a2.5 2.5 0 1 0 5 0 a2.5 2.5 0 1 0 -5 0zM352.5 35 a2.5 2.5 0 1 0 5 0 a2.5 2.5 0 1 0 -5 0zM1462.5 25 a2.5 2.5 0 1 0 5 0 a2.5 2.5 0 1 0 -5 0zM1062.5 35 a2.5 2.5 0 1 0 5 0 a2.5 2.5 0 1 0 -5 0zM1892.5 35 a2.5 2.5 0 1 0 5 0 a2.5 2.5 0 1 0 -5 0zM2012.5 35 a2.5 2.5 0 1 0 5 0 a2.5 2.5 0 1 0 -5 0zM1372.5 35 a2.5 2.5 0 1 0 5 0 a2.5 2.5 0 1 0 -5 0zM432.5 35 a2.5 2.5 0 1 0 5 0 a2.5 2.5 0 1 0 -5 0zM382.5 25 a2.5 2.5 0 1 0 5 0 a2.5 2.5 0 1 0 -5 0zM1232.5 25 a2.5 2.5 0 1 0 5 0 a2.5 2.5 0 1 0 -5 0zM1042.5 25 a2.5 2.5 0 1 0 5 0 a2.5 2.5 0 1 0 -5 0zM2742.5 25 a2.5 2.5 0 1 0 5 0 a2.5 2.5 0 1 0 -5 0zM1342.5 35 a2.5 2.5 0 1 0 5 0 a2.5 2.5 0 1 0 -5 0zM1222.5 25 a2.5 2.5 0 1 0 5 0 a2.5 2.5 0 1 0 -5 0zM372.5 25 a2.5 2.5 0 1 0 5 0 a2.5 2.5 0 1 0 -5 0zM1982.5 35 a2.5 2.5 0 1 0 5 0 a2.5 2.5 0 1 0 -5 0zM1442.5 25 a2.5 2.5 0 1 0 5 0 a2.5 2.5 0 1 0 -5 0zM2702.5 35 a2.5 2.5 0 1 0 5 0 a2.5 2.5 0 1 0 -5 0zM1882.5 35 a2.5 2.5 0 1 0 5 0 a2.5 2.5 0 1 0 -5 0zM972.5 25 a2.5 2.5 0 1 0 5 0 a2.5 2.5 0 1 0 -5 0zM2042.5 35 a2.5 2.5 0 1 0 5 0 a2.5 2.5 0 1 0 -5 0zM1212.5 25 a2.5 2.5 0 1 0 5 0 a2.5 2.5 0 1 0 -5 0zM2422.5 25 a2.5 2.5 0 1 0 5 0 a2.5 2.5 0 1 0 -5 0zM402.5 35 a2.5 2.5 0 1 0 5 0 a2.5 2.5 0 1 0 -5 0zM1872.5 35 a2.5 2.5 0 1 0 5 0 a2.5 2.5 0 1 0 -5 0zM362.5 25 a2.5 2.5 0 1 0 5 0 a2.5 2.5 0 1 0 -5 0zM722.5 25 a2.5 2.5 0 1 0 5 0 a2.5 2.5 0 1 0 -5 0zM2662.5 35 a2.5 2.5 0 1 0 5 0 a2.5 2.5 0 1 0 -5 0zM2412.5 25 a2.5 2.5 0 1 0 5 0 a2.5 2.5 0 1 0 -5 0z" fill="url(#SvgjsLinearGradient5110)"></path>
            <path d="M-5 35L5 35L15 35L25 35L35 35L45 35L55 35L65 35L75 35" stroke="url(#SvgjsLinearGradient5110)" stroke-width="1.67"></path>
            <path d="M72.5 35 a2.5 2.5 0 1 0 5 0 a2.5 2.5 0 1 0 -5 0z" fill="url(#SvgjsLinearGradient5110)"></path>
        </g>
    </g>
    <defs>
        <mask id="SvgjsMask5109">
            <rect width="4096" height="50" fill="#ffffff"></rect>
        </mask>
        <linearGradient x1="1011.3024" y1="-1011.5" x2="3084.6976" y2="1061.5" gradientUnits="userSpaceOnUse" id="SvgjsLinearGradient5110">
            <stop stop-color="rgba(17, 221, 117, 1)" offset="0"></stop>
            <stop stop-color="rgba(17, 221, 117, 1)" offset="0.88"></stop>
        </linearGradient>
        <mask id="SvgjsMask5111">
            <rect width="4096" height="50" fill="white"></rect>
            <path d="M2863.75 35 a1.25 1.25 0 1 0 2.5 0 a1.25 1.25 0 1 0 -2.5 0zM2403.75 35 a1.25 1.25 0 1 0 2.5 0 a1.25 1.25 0 1 0 -2.5 0zM2653.75 25 a1.25 1.25 0 1 0 2.5 0 a1.25 1.25 0 1 0 -2.5 0zM2183.75 35 a1.25 1.25 0 1 0 2.5 0 a1.25 1.25 0 1 0 -2.5 0zM953.75 25 a1.25 1.25 0 1 0 2.5 0 a1.25 1.25 0 1 0 -2.5 0zM833.75 25 a1.25 1.25 0 1 0 2.5 0 a1.25 1.25 0 1 0 -2.5 0zM333.75 25 a1.25 1.25 0 1 0 2.5 0 a1.25 1.25 0 1 0 -2.5 0zM3583.75 35 a1.25 1.25 0 1 0 2.5 0 a1.25 1.25 0 1 0 -2.5 0zM713.75 35 a1.25 1.25 0 1 0 2.5 0 a1.25 1.25 0 1 0 -2.5 0zM1203.75 35 a1.25 1.25 0 1 0 2.5 0 a1.25 1.25 0 1 0 -2.5 0zM2733.75 35 a1.25 1.25 0 1 0 2.5 0 a1.25 1.25 0 1 0 -2.5 0zM1853.75 35 a1.25 1.25 0 1 0 2.5 0 a1.25 1.25 0 1 0 -2.5 0zM1433.75 35 a1.25 1.25 0 1 0 2.5 0 a1.25 1.25 0 1 0 -2.5 0zM1813.75 35 a1.25 1.25 0 1 0 2.5 0 a1.25 1.25 0 1 0 -2.5 0zM1483.75 25 a1.25 1.25 0 1 0 2.5 0 a1.25 1.25 0 1 0 -2.5 0zM1703.75 35 a1.25 1.25 0 1 0 2.5 0 a1.25 1.25 0 1 0 -2.5 0zM623.75 35 a1.25 1.25 0 1 0 2.5 0 a1.25 1.25 0 1 0 -2.5 0zM453.75 35 a1.25 1.25 0 1 0 2.5 0 a1.25 1.25 0 1 0 -2.5 0zM2793.75 25 a1.25 1.25 0 1 0 2.5 0 a1.25 1.25 0 1 0 -2.5 0zM393.75 25 a1.25 1.25 0 1 0 2.5 0 a1.25 1.25 0 1 0 -2.5 0zM2063.75 35 a1.25 1.25 0 1 0 2.5 0 a1.25 1.25 0 1 0 -2.5 0zM2513.75 25 a1.25 1.25 0 1 0 2.5 0 a1.25 1.25 0 1 0 -2.5 0zM1083.75 35 a1.25 1.25 0 1 0 2.5 0 a1.25 1.25 0 1 0 -2.5 0zM1323.75 25 a1.25 1.25 0 1 0 2.5 0 a1.25 1.25 0 1 0 -2.5 0zM823.75 25 a1.25 1.25 0 1 0 2.5 0 a1.25 1.25 0 1 0 -2.5 0zM1573.75 35 a1.25 1.25 0 1 0 2.5 0 a1.25 1.25 0 1 0 -2.5 0zM1023.75 25 a1.25 1.25 0 1 0 2.5 0 a1.25 1.25 0 1 0 -2.5 0zM1943.75 35 a1.25 1.25 0 1 0 2.5 0 a1.25 1.25 0 1 0 -2.5 0zM773.75 25 a1.25 1.25 0 1 0 2.5 0 a1.25 1.25 0 1 0 -2.5 0zM2493.75 25 a1.25 1.25 0 1 0 2.5 0 a1.25 1.25 0 1 0 -2.5 0zM1293.75 25 a1.25 1.25 0 1 0 2.5 0 a1.25 1.25 0 1 0 -2.5 0zM353.75 35 a1.25 1.25 0 1 0 2.5 0 a1.25 1.25 0 1 0 -2.5 0zM1463.75 25 a1.25 1.25 0 1 0 2.5 0 a1.25 1.25 0 1 0 -2.5 0zM1063.75 35 a1.25 1.25 0 1 0 2.5 0 a1.25 1.25 0 1 0 -2.5 0zM1893.75 35 a1.25 1.25 0 1 0 2.5 0 a1.25 1.25 0 1 0 -2.5 0zM2013.75 35 a1.25 1.25 0 1 0 2.5 0 a1.25 1.25 0 1 0 -2.5 0zM1373.75 35 a1.25 1.25 0 1 0 2.5 0 a1.25 1.25 0 1 0 -2.5 0zM433.75 35 a1.25 1.25 0 1 0 2.5 0 a1.25 1.25 0 1 0 -2.5 0zM383.75 25 a1.25 1.25 0 1 0 2.5 0 a1.25 1.25 0 1 0 -2.5 0zM1233.75 25 a1.25 1.25 0 1 0 2.5 0 a1.25 1.25 0 1 0 -2.5 0zM1043.75 25 a1.25 1.25 0 1 0 2.5 0 a1.25 1.25 0 1 0 -2.5 0zM2743.75 25 a1.25 1.25 0 1 0 2.5 0 a1.25 1.25 0 1 0 -2.5 0zM1343.75 35 a1.25 1.25 0 1 0 2.5 0 a1.25 1.25 0 1 0 -2.5 0zM1223.75 25 a1.25 1.25 0 1 0 2.5 0 a1.25 1.25 0 1 0 -2.5 0zM373.75 25 a1.25 1.25 0 1 0 2.5 0 a1.25 1.25 0 1 0 -2.5 0zM1983.75 35 a1.25 1.25 0 1 0 2.5 0 a1.25 1.25 0 1 0 -2.5 0zM1443.75 25 a1.25 1.25 0 1 0 2.5 0 a1.25 1.25 0 1 0 -2.5 0zM2703.75 35 a1.25 1.25 0 1 0 2.5 0 a1.25 1.25 0 1 0 -2.5 0zM1883.75 35 a1.25 1.25 0 1 0 2.5 0 a1.25 1.25 0 1 0 -2.5 0zM973.75 25 a1.25 1.25 0 1 0 2.5 0 a1.25 1.25 0 1 0 -2.5 0zM2043.75 35 a1.25 1.25 0 1 0 2.5 0 a1.25 1.25 0 1 0 -2.5 0zM1213.75 25 a1.25 1.25 0 1 0 2.5 0 a1.25 1.25 0 1 0 -2.5 0zM2423.75 25 a1.25 1.25 0 1 0 2.5 0 a1.25 1.25 0 1 0 -2.5 0zM403.75 35 a1.25 1.25 0 1 0 2.5 0 a1.25 1.25 0 1 0 -2.5 0zM1873.75 35 a1.25 1.25 0 1 0 2.5 0 a1.25 1.25 0 1 0 -2.5 0zM363.75 25 a1.25 1.25 0 1 0 2.5 0 a1.25 1.25 0 1 0 -2.5 0zM723.75 25 a1.25 1.25 0 1 0 2.5 0 a1.25 1.25 0 1 0 -2.5 0zM2663.75 35 a1.25 1.25 0 1 0 2.5 0 a1.25 1.25 0 1 0 -2.5 0zM2413.75 25 a1.25 1.25 0 1 0 2.5 0 a1.25 1.25 0 1 0 -2.5 0z" fill="black"></path>
            <path d="M73.75 35 a1.25 1.25 0 1 0 2.5 0 a1.25 1.25 0 1 0 -2.5 0z" fill="black"></path>
        </mask>
    </defs>
</svg>